<?xml version="1.0" encoding="UTF-8"?>
<svg width="36.158mm" height="43.938mm" version="1.1" viewBox="0 0 36.158 43.938" xmlns="http://www.w3.org/2000/svg">
	<defs>
		<clipPath id="b">
			<path d="m299.12 460.16c0-11.234 9.105-20.339 20.338-20.339 11.232 0 20.338 9.105 20.338 20.339 0 11.231-9.106 20.337-20.338 20.337-11.233 0-20.338-9.106-20.338-20.337"/>
		</clipPath>
		<clipPath id="a">
			<path d="M 0,841.89 H 595.276 V 0 H 0 Z"/>
		</clipPath>
	</defs>
	<g transform="translate(-84.14 -116.21)">
		<g transform="matrix(.35278 0 0 -.35278 -2.8227 288.42)">
			<path d="m343.34 482.48h-91.156v-45.578h91.156zm-1-44.578h-89.156v43.578h89.156z" fill="#2c3592"/>
			<g clip-path="url(#b)">
				<g transform="translate(299.12 460.16)">
					<path d="m0 0c0 11.232 9.106 20.338 20.338 20.338s20.338-9.106 20.338-20.338c0-11.233-9.106-20.338-20.338-20.338s-20.338 9.105-20.338 20.338" fill="#2c3592"/>
				</g>
				<g transform="translate(339.94 456.96)">
					<path d="m0 0c-5.635 4.437-12.587 7.507-19.485 8.823-7.19 1.371-14.8 0.414-21.79-0.993l-1.042 3.245c7.607 2.102 16.183 2.996 23.878 1.528 4.357-0.831 9.347-2.652 13.367-4.585 2.805-1.35 4.805-2.994 7.321-4.822z" fill="#fff"/>
				</g>
				<g transform="translate(301.22 464.79)">
					<path d="m0 0 0.295-0.86 0.909 0.016-0.726-0.547 0.295-0.859-0.744 0.521-0.726-0.547 0.266 0.87-0.743 0.521 0.907 0.016z" fill="#fff"/>
				</g>
				<g transform="translate(319.31 457.72)">
					<path d="m0 0 0.18-0.55 0.554 9e-3 -0.441-0.349 0.181-0.55-0.455 0.334-0.443-0.349 0.162 0.556-0.455 0.334 0.555 9e-3z" fill="#fff"/>
				</g>
				<g transform="translate(334.48 452.14)">
					<path d="m0 0 0.234-0.744 0.716 0.012-0.572-0.471 0.235-0.744-0.587 0.453-0.572-0.473 0.209 0.751-0.588 0.453 0.717 0.012z" fill="#fff"/>
				</g>
				<g transform="translate(332.3 452.37)">
					<path d="m0 0 0.221-0.73 0.695 5e-3 -0.559-0.457 0.219-0.73-0.566 0.449-0.559-0.457 0.21 0.734-0.566 0.448 0.696 5e-3z" fill="#fff"/>
				</g>
				<g transform="translate(329.9 451.44)">
					<path d="m0 0 0.232-0.728 0.714 0.012-0.569-0.463 0.232-0.728-0.585 0.443-0.569-0.463 0.208 0.736-0.585 0.443 0.714 0.012z" fill="#fff"/>
				</g>
				<g transform="translate(328.17 449.22)">
					<path d="m0 0 0.205-0.704 0.681-3e-3 -0.553-0.431 0.207-0.704-0.549 0.437-0.553-0.431 0.215 0.702-0.548 0.437 0.681-4e-3z" fill="#fff"/>
				</g>
				<g transform="translate(332.3 447.05)">
					<path d="m0 0 0.204-0.724 0.684-7e-3 -0.558-0.439 0.201-0.723-0.548 0.452-0.559-0.439 0.22 0.718-0.549 0.452 0.684-8e-3z" fill="#fff"/>
				</g>
				<g transform="translate(320.74 444.14)">
					<path d="m0 0 0.212-0.733 0.697-4e-3 -0.566-0.449 0.211-0.733-0.561 0.454-0.566-0.449 0.219 0.731-0.562 0.455 0.696-4e-3z" fill="#fff"/>
				</g>
				<g transform="translate(332.3 449.69)">
					<path d="m0 0 0.203-0.741 0.702-0.014-0.576-0.445 0.202-0.741-0.558 0.467-0.577-0.445 0.23 0.733-0.559 0.466 0.703-0.013z" fill="#fff"/>
				</g>
				<g transform="translate(336.45 453.59)">
					<path d="m0 0 0.229-0.734 0.704 0.012-0.561-0.465 0.23-0.734-0.578 0.446-0.56-0.466 0.204 0.741-0.576 0.447 0.703 0.012z" fill="#fff"/>
				</g>
				<g transform="translate(321.11 456.69)">
					<path d="m0 0 0.161-0.563 0.517 1e-3 -0.417-0.349 0.161-0.564-0.42 0.347-0.417-0.349 0.158 0.564-0.419 0.348 0.517 1e-3z" fill="#fff"/>
				</g>
				<g transform="translate(322.08 453.31)">
					<path d="m0 0 0.243-0.806 0.789-1e-3 -0.64-0.498 0.244-0.807-0.638 0.499-0.641-0.497 0.247 0.806-0.639 0.499 0.79-1e-3z" fill="#fff"/>
				</g>
				<g transform="translate(337.24 455.89)">
					<path d="m0 0 0.235-0.719 0.721 0.012-0.575-0.456 0.235-0.72-0.591 0.437-0.575-0.457 0.21 0.727-0.59 0.437 0.72 0.012z" fill="#fff"/>
				</g>
				<g transform="translate(338.68 457.43)">
					<path d="m0 0 0.16-0.466 0.493 8e-3 -0.394-0.297 0.161-0.467-0.403 0.284-0.395-0.297 0.145 0.472-0.405 0.283 0.493 8e-3z" fill="#fff"/>
				</g>
			</g>
			<path d="m252.18 369.27h91.156v67.632h-91.156z" fill="#2c3592"/>
			<g clip-path="url(#a)">
				<g transform="translate(278.8 407.35)">
					<path d="m0 0h3.719c2.925 0 5.133 0.508 6.626 1.525 1.49 1.016 2.476 2.316 2.956 3.902 0.468 1.541 0.348 2.847-0.355 3.919-0.703 1.071-2.471 1.607-5.306 1.607h-4.322zm-8.898 20.935h25.221c5.493 0 9.212-1.306 11.156-3.919 1.946-2.612 2.186-6.33 0.725-11.153-1.501-4.958-4.166-8.833-7.991-11.624-3.827-2.792-8.801-4.187-14.917-4.187h-8.308l-5.518-18.221h-15.241z" fill="#fff"/>
				</g>
				<g transform="translate(313.19 428.29)">
					<path d="m0 0h15.175l-11.211-37.013h23.682l-3.663-12.091h-38.855z" fill="#fff"/>
				</g>
				<g transform="translate(310.67 463.77)">
					<path d="m0 0 0.297-0.972 0.908 0.016-0.725-0.617 0.298-0.973-0.746 0.591-0.724-0.615 0.264 0.982-0.746 0.591 0.908 0.016z" fill="#fff"/>
				</g>
				<g transform="translate(306.93 458.09)">
					<path d="m0 0 0.148-0.506 0.458 7e-3 -0.365-0.321 0.151-0.506-0.375 0.308-0.365-0.32 0.133 0.511-0.375 0.308 0.457 8e-3z" fill="#fff"/>
				</g>
				<g transform="translate(304.13 456.9)">
					<path d="m0 0 0.297-0.981 0.909 0.016-0.725-0.622 0.299-0.981-0.746 0.596-0.724-0.621 0.263 0.991-0.746 0.596 0.909 0.016z" fill="#fff"/>
				</g>
				<g transform="translate(301.38 455.42)">
					<path d="m0 0 0.233-0.744 0.714 0.013-0.57-0.471 0.233-0.745-0.584 0.453-0.57-0.472 0.208 0.752-0.586 0.451 0.714 0.012z" fill="#fff"/>
				</g>
				<g transform="translate(309.66 453.09)">
					<path d="m0 0 0.275-0.854 0.842 0.014-0.672-0.541 0.276-0.855-0.691 0.518-0.673-0.541 0.246 0.863-0.691 0.519 0.843 0.015z" fill="#fff"/>
				</g>
				<g transform="translate(308.58 450.63)">
					<path d="m0 0 0.227-0.683 0.697 0.012-0.558-0.434 0.228-0.684-0.571 0.415-0.556-0.434 0.204 0.691-0.571 0.415 0.696 0.012z" fill="#fff"/>
				</g>
				<g transform="translate(311.69 449.39)">
					<path d="m0 0 0.283-0.931 0.866 0.015-0.69-0.591 0.284-0.933-0.711 0.567-0.69-0.59 0.252 0.941-0.71 0.566 0.864 0.015z" fill="#fff"/>
				</g>
				<g transform="translate(323.51 463.66)">
					<path d="m0 0 0.275-0.854 0.842 0.014-0.672-0.541 0.276-0.855-0.691 0.518-0.673-0.541 0.246 0.863-0.691 0.519 0.842 0.014z" fill="#fff"/>
				</g>
				<g transform="translate(321.49 459.9)">
					<path d="m0 0 0.26-0.818 0.801 0.014-0.639-0.52 0.262-0.818-0.656 0.497-0.637-0.519 0.232 0.827-0.654 0.497 0.799 0.014z" fill="#fff"/>
				</g>
				<g transform="translate(323.65 458.14)">
					<path d="m0 0 0.242-0.791 0.739 0.013-0.589-0.502 0.242-0.792-0.607 0.482-0.589-0.502 0.215 0.799-0.606 0.482 0.738 0.012z" fill="#fff"/>
				</g>
				<g transform="translate(325.86 452.03)">
					<path d="m0 0 0.245-0.777 0.748 0.012-0.597-0.494 0.245-0.778-0.614 0.472-0.598-0.493 0.218 0.786-0.614 0.473 0.749 0.013z" fill="#fff"/>
				</g>
				<g transform="translate(334.86 459.24)">
					<path d="m0 0 0.304-0.945 0.932 0.016-0.745-0.6 0.306-0.946-0.765 0.574-0.745-0.6 0.273 0.956-0.765 0.574 0.933 0.016z" fill="#fff"/>
				</g>
				<g transform="translate(329.24 472.01)">
					<path d="m0 0 0.104-1.307 1.246-0.285-1.179-0.524 0.105-1.31-0.835 0.985-1.178-0.524 0.664 1.133-0.835 0.984 1.244-0.284z" fill="#fff"/>
				</g>
			</g>
		</g>
	</g>
</svg>
